<?xml version="1.0" standalone="no"?>
<!DOCTYPE svg PUBLIC "-//W3C//DTD SVG 20010904//EN"
 "http://www.w3.org/TR/2001/REC-SVG-20010904/DTD/svg10.dtd">
<svg version="1.0" xmlns="http://www.w3.org/2000/svg"
 width="137.000000pt" height="137.000000pt" viewBox="0 0 137.000000 137.000000"
 preserveAspectRatio="xMidYMid meet">
<metadata>
Created by potrace 1.14, written by Peter Selinger 2001-2017
</metadata>
<g transform="translate(0.000000,137.000000) scale(0.100000,-0.100000)"
fill="#000000" stroke="none">
<path d="M556 1242 c-3 -5 31 -101 75 -213 45 -112 115 -289 156 -394 41 -104
88 -223 105 -263 l30 -73 104 4 c57 2 106 6 108 8 5 4 115 234 179 374 38 82
42 97 42 172 0 76 -2 84 -31 120 -57 71 -104 87 -289 97 -83 5 -88 -2 -59 -76
13 -34 25 -62 26 -63 2 -2 34 -6 73 -10 75 -7 119 -25 129 -51 15 -38 -20
-137 -115 -330 -43 -87 -54 -103 -65 -92 -11 11 -108 246 -292 705 l-37 93
-67 0 c-37 0 -69 -4 -72 -8z"/>
<path d="M192 993 c-22 -48 -66 -142 -98 -208 -31 -66 -65 -144 -75 -174 -56
-160 20 -288 182 -306 92 -10 187 -13 199 -5 8 5 4 26 -15 73 -21 53 -32 67
-49 68 -60 2 -108 9 -139 23 -65 27 -59 73 33 276 71 155 95 194 108 177 10
-12 143 -336 278 -675 l48 -122 57 0 c90 0 91 1 64 73 -69 186 -337 853 -347
864 -5 7 -20 12 -32 12 -11 0 -55 3 -97 6 l-75 6 -42 -88z"/>
</g>
</svg>
